<svg width="166" height="27" viewBox="0 0 166 27" fill="none" xmlns="http://www.w3.org/2000/svg">
<path d="M0.00852269 0.636363H4.52273L10.5682 15.392H10.8068L16.8523 0.636363H21.3665V21H17.8267V7.00994H17.6378L12.0099 20.9403H9.36506L3.73722 6.98011H3.5483V21H0.00852269V0.636363ZM29.6193 21.3082C28.6515 21.3082 27.7798 21.1359 27.0043 20.7912C26.2353 20.4399 25.6255 19.9228 25.1747 19.2401C24.7306 18.5573 24.5085 17.7154 24.5085 16.7145C24.5085 15.8527 24.6676 15.1402 24.9858 14.5767C25.304 14.0133 25.7382 13.5625 26.2884 13.2244C26.8385 12.8864 27.4583 12.6312 28.1477 12.4588C28.8438 12.2798 29.563 12.1506 30.3054 12.071C31.2003 11.9782 31.9261 11.8954 32.483 11.8224C33.0398 11.7429 33.4441 11.6236 33.696 11.4645C33.9545 11.2988 34.0838 11.0436 34.0838 10.6989V10.6392C34.0838 9.89015 33.8617 9.31013 33.4176 8.89915C32.9735 8.48816 32.3338 8.28267 31.4986 8.28267C30.617 8.28267 29.9176 8.47491 29.4006 8.85938C28.8902 9.24384 28.5455 9.69792 28.3665 10.2216L25.0057 9.74432C25.2708 8.81629 25.7083 8.04072 26.3182 7.41761C26.928 6.78788 27.6738 6.31723 28.5554 6.00568C29.437 5.6875 30.4115 5.52841 31.4787 5.52841C32.2145 5.52841 32.947 5.61458 33.6761 5.78693C34.4053 5.95928 35.0715 6.24432 35.6747 6.64204C36.2779 7.03314 36.7618 7.56676 37.1264 8.2429C37.4976 8.91903 37.6832 9.7642 37.6832 10.7784V21H34.223V18.902H34.1037C33.8849 19.3262 33.5767 19.724 33.179 20.0952C32.7879 20.4598 32.294 20.7547 31.6974 20.9801C31.1075 21.1989 30.4148 21.3082 29.6193 21.3082ZM30.554 18.6634C31.2765 18.6634 31.9029 18.5208 32.4332 18.2358C32.9635 17.9441 33.3712 17.5597 33.6562 17.0824C33.9479 16.6051 34.0938 16.0848 34.0938 15.5213V13.7216C33.9811 13.8144 33.7888 13.9006 33.517 13.9801C33.2519 14.0597 32.9536 14.1293 32.6222 14.1889C32.2907 14.2486 31.9626 14.3016 31.6378 14.348C31.313 14.3944 31.0313 14.4342 30.7926 14.4673C30.2557 14.5402 29.7751 14.6596 29.3509 14.8253C28.9266 14.991 28.5919 15.223 28.3466 15.5213C28.1013 15.813 27.9787 16.1908 27.9787 16.6548C27.9787 17.3177 28.2206 17.8182 28.7045 18.1562C29.1884 18.4943 29.8049 18.6634 30.554 18.6634ZM41.3026 21V5.72727H44.7926V8.27273H44.9517C45.2301 7.3911 45.7074 6.71165 46.3835 6.23438C47.0663 5.75047 47.8452 5.50852 48.7202 5.50852C48.919 5.50852 49.1411 5.51847 49.3864 5.53835C49.6383 5.55161 49.8471 5.57481 50.0128 5.60795V8.91903C49.8603 8.866 49.6184 8.8196 49.2869 8.77983C48.9621 8.73343 48.6473 8.71023 48.3423 8.71023C47.6861 8.71023 47.0961 8.85275 46.5724 9.13778C46.0554 9.41619 45.6477 9.80398 45.3494 10.3011C45.0511 10.7983 44.902 11.3717 44.902 12.0213V21H41.3026ZM55.6854 16.2074L55.6754 11.8622H56.2521L61.7408 5.72727H65.9467L59.1953 13.2443H58.4496L55.6854 16.2074ZM52.4041 21V0.636363H56.0036V21H52.4041ZM61.9893 21L57.0178 14.0497L59.4439 11.5142L66.2947 21H61.9893ZM74.478 21.2983C72.9467 21.2983 71.6243 20.9801 70.5107 20.3438C69.4036 19.7008 68.5518 18.7926 67.9553 17.6193C67.3587 16.4394 67.0604 15.0507 67.0604 13.4531C67.0604 11.8821 67.3587 10.5033 67.9553 9.31676C68.5585 8.12358 69.4003 7.19555 70.4808 6.53267C71.5613 5.86316 72.8307 5.52841 74.2891 5.52841C75.2304 5.52841 76.1186 5.68087 76.9538 5.98579C77.7957 6.28409 78.5381 6.74811 79.1811 7.37784C79.8307 8.00758 80.3411 8.80966 80.7124 9.78409C81.0836 10.7519 81.2692 11.9053 81.2692 13.2443V14.348H68.7507V11.9219H77.8189C77.8123 11.2325 77.6631 10.6193 77.3714 10.0824C77.0798 9.53883 76.6721 9.11127 76.1484 8.79972C75.6314 8.48816 75.0282 8.33239 74.3388 8.33239C73.603 8.33239 72.9567 8.51136 72.3999 8.86932C71.843 9.22064 71.4089 9.68466 71.0973 10.2614C70.7924 10.8314 70.6366 11.4579 70.63 12.1406V14.2585C70.63 15.1468 70.7924 15.9091 71.1172 16.5455C71.442 17.1752 71.8961 17.6591 72.4794 17.9972C73.0627 18.3286 73.7455 18.4943 74.5277 18.4943C75.0514 18.4943 75.5253 18.4214 75.9496 18.2756C76.3738 18.1231 76.7417 17.901 77.0533 17.6094C77.3648 17.3177 77.6001 16.9564 77.7592 16.5256L81.12 16.9034C80.9079 17.7917 80.5036 18.5672 79.907 19.2301C79.317 19.8864 78.5613 20.3968 77.6399 20.7614C76.7185 21.1193 75.6645 21.2983 74.478 21.2983ZM91.9407 5.72727V8.51136H83.1609V5.72727H91.9407ZM85.3285 2.06818H88.9279V16.4062C88.9279 16.8902 89.0008 17.2614 89.1467 17.5199C89.2991 17.7718 89.498 17.9441 89.7433 18.0369C89.9885 18.1297 90.2603 18.1761 90.5586 18.1761C90.784 18.1761 90.9895 18.1596 91.1751 18.1264C91.3673 18.0933 91.5131 18.0634 91.6126 18.0369L92.2191 20.8509C92.0269 20.9171 91.7518 20.9901 91.3938 21.0696C91.0425 21.1491 90.6116 21.1955 90.1012 21.2088C89.1997 21.2353 88.3877 21.0994 87.6651 20.8011C86.9426 20.4962 86.3692 20.0256 85.945 19.3892C85.5273 18.7528 85.3219 17.9574 85.3285 17.0028V2.06818ZM94.951 26.7273V5.72727H98.4908V8.25284H98.6996C98.8852 7.88163 99.147 7.48722 99.4851 7.0696C99.8232 6.64536 100.281 6.28409 100.857 5.98579C101.434 5.68087 102.17 5.52841 103.065 5.52841C104.245 5.52841 105.308 5.83002 106.256 6.43324C107.211 7.02983 107.967 7.91477 108.523 9.08807C109.087 10.2547 109.369 11.6866 109.369 13.3835C109.369 15.0606 109.094 16.4858 108.543 17.6591C107.993 18.8324 107.244 19.7273 106.296 20.3438C105.348 20.9602 104.274 21.2685 103.075 21.2685C102.2 21.2685 101.474 21.1226 100.897 20.831C100.32 20.5393 99.8563 20.188 99.505 19.777C99.1603 19.3594 98.8918 18.965 98.6996 18.5938H98.5504V26.7273H94.951ZM98.4808 13.3636C98.4808 14.3513 98.62 15.2164 98.8984 15.9588C99.1835 16.7012 99.5911 17.2812 100.121 17.6989C100.658 18.1098 101.308 18.3153 102.07 18.3153C102.866 18.3153 103.532 18.1032 104.069 17.679C104.606 17.2481 105.01 16.6615 105.282 15.919C105.56 15.17 105.7 14.3182 105.7 13.3636C105.7 12.4157 105.564 11.5739 105.292 10.8381C105.02 10.1023 104.616 9.52557 104.079 9.10795C103.542 8.69034 102.872 8.48153 102.07 8.48153C101.301 8.48153 100.648 8.68371 100.112 9.08807C99.5746 9.49242 99.1669 10.0592 98.8885 10.7884C98.6167 11.5175 98.4808 12.3759 98.4808 13.3636ZM116.05 0.636363V21H112.451V0.636363H116.05ZM124.147 21.3082C123.179 21.3082 122.307 21.1359 121.532 20.7912C120.763 20.4399 120.153 19.9228 119.702 19.2401C119.258 18.5573 119.036 17.7154 119.036 16.7145C119.036 15.8527 119.195 15.1402 119.513 14.5767C119.831 14.0133 120.266 13.5625 120.816 13.2244C121.366 12.8864 121.986 12.6312 122.675 12.4588C123.371 12.2798 124.09 12.1506 124.833 12.071C125.728 11.9782 126.453 11.8954 127.01 11.8224C127.567 11.7429 127.971 11.6236 128.223 11.4645C128.482 11.2988 128.611 11.0436 128.611 10.6989V10.6392C128.611 9.89015 128.389 9.31013 127.945 8.89915C127.501 8.48816 126.861 8.28267 126.026 8.28267C125.144 8.28267 124.445 8.47491 123.928 8.85938C123.417 9.24384 123.073 9.69792 122.894 10.2216L119.533 9.74432C119.798 8.81629 120.236 8.04072 120.846 7.41761C121.455 6.78788 122.201 6.31723 123.083 6.00568C123.964 5.6875 124.939 5.52841 126.006 5.52841C126.742 5.52841 127.474 5.61458 128.203 5.78693C128.933 5.95928 129.599 6.24432 130.202 6.64204C130.805 7.03314 131.289 7.56676 131.654 8.2429C132.025 8.91903 132.211 9.7642 132.211 10.7784V21H128.75V18.902H128.631C128.412 19.3262 128.104 19.724 127.706 20.0952C127.315 20.4598 126.821 20.7547 126.225 20.9801C125.635 21.1989 124.942 21.3082 124.147 21.3082ZM125.081 18.6634C125.804 18.6634 126.43 18.5208 126.961 18.2358C127.491 17.9441 127.899 17.5597 128.184 17.0824C128.475 16.6051 128.621 16.0848 128.621 15.5213V13.7216C128.508 13.8144 128.316 13.9006 128.044 13.9801C127.779 14.0597 127.481 14.1293 127.15 14.1889C126.818 14.2486 126.49 14.3016 126.165 14.348C125.84 14.3944 125.559 14.4342 125.32 14.4673C124.783 14.5402 124.302 14.6596 123.878 14.8253C123.454 14.991 123.119 15.223 122.874 15.5213C122.629 15.813 122.506 16.1908 122.506 16.6548C122.506 17.3177 122.748 17.8182 123.232 18.1562C123.716 18.4943 124.332 18.6634 125.081 18.6634ZM142.492 21.2983C140.967 21.2983 139.658 20.9635 138.564 20.294C137.477 19.6245 136.639 18.6998 136.049 17.5199C135.465 16.3333 135.174 14.9678 135.174 13.4233C135.174 11.8722 135.472 10.5033 136.069 9.31676C136.665 8.12358 137.507 7.19555 138.594 6.53267C139.688 5.86316 140.98 5.52841 142.472 5.52841C143.712 5.52841 144.809 5.7571 145.763 6.21449C146.724 6.66525 147.49 7.30492 148.06 8.13352C148.63 8.95549 148.955 9.91667 149.034 11.017H145.594C145.455 10.2812 145.123 9.66809 144.6 9.17756C144.083 8.6804 143.39 8.43182 142.522 8.43182C141.786 8.43182 141.14 8.63068 140.583 9.02841C140.026 9.41951 139.592 9.98295 139.28 10.7188C138.975 11.4545 138.823 12.3362 138.823 13.3636C138.823 14.4044 138.975 15.2992 139.28 16.0483C139.585 16.7907 140.013 17.3641 140.563 17.7685C141.12 18.1662 141.773 18.3651 142.522 18.3651C143.052 18.3651 143.526 18.2656 143.944 18.0668C144.368 17.8613 144.722 17.5663 145.007 17.1818C145.292 16.7973 145.488 16.33 145.594 15.7798H149.034C148.948 16.8603 148.63 17.8182 148.08 18.6534C147.53 19.482 146.781 20.1316 145.833 20.6023C144.885 21.0663 143.771 21.2983 142.492 21.2983ZM158.751 21.2983C157.22 21.2983 155.898 20.9801 154.784 20.3438C153.677 19.7008 152.825 18.7926 152.229 17.6193C151.632 16.4394 151.334 15.0507 151.334 13.4531C151.334 11.8821 151.632 10.5033 152.229 9.31676C152.832 8.12358 153.674 7.19555 154.754 6.53267C155.835 5.86316 157.104 5.52841 158.562 5.52841C159.504 5.52841 160.392 5.68087 161.227 5.98579C162.069 6.28409 162.812 6.74811 163.455 7.37784C164.104 8.00758 164.615 8.80966 164.986 9.78409C165.357 10.7519 165.543 11.9053 165.543 13.2443V14.348H153.024V11.9219H162.092C162.086 11.2325 161.937 10.6193 161.645 10.0824C161.353 9.53883 160.946 9.11127 160.422 8.79972C159.905 8.48816 159.302 8.33239 158.612 8.33239C157.876 8.33239 157.23 8.51136 156.673 8.86932C156.116 9.22064 155.682 9.68466 155.371 10.2614C155.066 10.8314 154.91 11.4579 154.903 12.1406V14.2585C154.903 15.1468 155.066 15.9091 155.391 16.5455C155.715 17.1752 156.17 17.6591 156.753 17.9972C157.336 18.3286 158.019 18.4943 158.801 18.4943C159.325 18.4943 159.799 18.4214 160.223 18.2756C160.647 18.1231 161.015 17.901 161.327 17.6094C161.638 17.3177 161.874 16.9564 162.033 16.5256L165.393 16.9034C165.181 17.7917 164.777 18.5672 164.18 19.2301C163.59 19.8864 162.835 20.3968 161.913 20.7614C160.992 21.1193 159.938 21.2983 158.751 21.2983Z" fill="#FFFDFD"/>
</svg>
